<?xml version="1.0" encoding="UTF-8"?>
<svg version="1.1" xmlns="http://www.w3.org/2000/svg" width="48" height="45">
<path d="M0 0 C5.05679205 1.63088162 10.03557898 3.37174611 14.98828125 5.296875 C16.02404297 5.69777344 17.05980469 6.09867187 18.12695312 6.51171875 C20.27290627 7.3458906 22.41610146 8.1871883 24.55664062 9.03515625 C25.58595703 9.43089844 26.61527344 9.82664062 27.67578125 10.234375 C28.60302002 10.59756836 29.53025879 10.96076172 30.4855957 11.33496094 C33.19491428 12.05155321 34.43049962 12.04963138 37 11 C39.36080573 8.92706749 39.36080573 8.92706749 41.625 6.4375 C43.04700295 4.92337393 44.49825153 3.43506852 46 2 C46.66 2 47.32 2 48 2 C46.41980408 7.2063297 44.22115005 11.98373311 41.875 16.875 C41.50246094 17.65875 41.12992188 18.4425 40.74609375 19.25 C39.83381003 21.16813499 38.91733016 23.08427329 38 25 C40.57784846 27.64752004 42.91648098 29.94432065 46 32 C46 32.66 46 33.32 46 34 C43.87959258 35.03033882 41.75352092 36.04902854 39.625 37.0625 C38.44164062 37.63097656 37.25828125 38.19945312 36.0390625 38.78515625 C35.03617188 39.18605469 34.03328125 39.58695313 33 40 C32.01 39.505 32.01 39.505 31 39 C27.50836459 40.16387847 24.9550706 41.97019781 21.9375 44.0390625 C20 45 20 45 17 44 C17.36351563 43.37432129 17.72703125 42.74864258 18.1015625 42.10400391 C19.73883754 39.28022923 21.36949016 36.45268598 23 33.625 C23.57234375 32.64015625 24.1446875 31.6553125 24.734375 30.640625 C25.27578125 29.69960938 25.8171875 28.75859375 26.375 27.7890625 C26.87773437 26.91975098 27.38046875 26.05043945 27.8984375 25.15478516 C29.15172857 23.10653928 29.15172857 23.10653928 29 21 C26.82212178 19.4138702 24.64367667 17.94627099 22.375 16.5 C21.00526851 15.60737156 19.63681092 14.71278575 18.26953125 13.81640625 C17.21306396 13.12442139 17.21306396 13.12442139 16.13525391 12.41845703 C12.73089489 10.1569288 9.39116975 7.80855973 6.0625 5.4375 C5.45390137 5.00824219 4.84530273 4.57898438 4.21826172 4.13671875 C2.79277823 3.11774825 1.39323572 2.06263741 0 1 C0 0.67 0 0.34 0 0 Z M35 29 C35.33 29.66 35.66 30.32 36 31 C36.99 30.67 37.98 30.34 39 30 C37.68 29.67 36.36 29.34 35 29 Z " fill="#A3AAB2" transform="translate(0,0)"/>
<path d="M0 0 C0.55429687 0.42152344 1.10859375 0.84304687 1.6796875 1.27734375 C2.40414062 1.82519531 3.12859375 2.37304688 3.875 2.9375 C4.59429687 3.48277344 5.31359375 4.02804688 6.0546875 4.58984375 C7.94357079 6.03964624 7.94357079 6.03964624 10 7 C10 7.66 10 8.32 10 9 C7.87959258 10.03033882 5.75352092 11.04902854 3.625 12.0625 C2.44164063 12.63097656 1.25828125 13.19945312 0.0390625 13.78515625 C-0.96382812 14.18605469 -1.96671875 14.58695313 -3 15 C-3.66 14.67 -4.32 14.34 -5 14 C-8.49163541 15.16387847 -11.0449294 16.97019781 -14.0625 19.0390625 C-16 20 -16 20 -19 19 C-15.535 12.565 -15.535 12.565 -12 6 C-11.67 7.32 -11.34 8.64 -11 10 C-5.23656005 9.53112236 -5.23656005 9.53112236 -1 6 C-0.01 5.67 0.98 5.34 2 5 C1.01 4.67 0.02 4.34 -1 4 C-0.67 2.68 -0.34 1.36 0 0 Z " fill="#364D64" transform="translate(36,25)"/>
<path d="M0 0 C4.5908646 1.63705249 8.59582182 3.99468638 12.75 6.5 C13.43449219 6.90347656 14.11898438 7.30695312 14.82421875 7.72265625 C19.87723214 10.75446429 19.87723214 10.75446429 21 13 C18.65386027 19.01835843 15.78617834 21.4533523 10.07006836 24.1105957 C0.62261637 28.20753879 0.62261637 28.20753879 -3 27 C-0.37695436 25.01823243 2.24876211 23.04003469 4.875 21.0625 C5.62136719 20.49853516 6.36773437 19.93457031 7.13671875 19.35351562 C7.85214844 18.81533203 8.56757813 18.27714844 9.3046875 17.72265625 C9.96452637 17.22515869 10.62436523 16.72766113 11.30419922 16.21508789 C13 15 13 15 15 14 C15 13.34 15 12.68 15 12 C12.71768011 10.2566021 10.43398256 8.61325344 8.0625 7 C1.12722883 2.25445765 1.12722883 2.25445765 0 0 Z " fill="#566370" transform="translate(7,10)"/>
<path d="M0 0 C3.3 0.33 6.6 0.66 10 1 C9.67 2.32 9.34 3.64 9 5 C8.34 5 7.68 5 7 5 C7 6.98 7 8.96 7 11 C6.01 11.33 5.02 11.66 4 12 C3.67 12.99 3.34 13.98 3 15 C0.69 15 -1.62 15 -4 15 C-3.52511132 10.15613551 -2.60543359 7.07806997 0 3 C0 2.01 0 1.02 0 0 Z " fill="#738496" transform="translate(29,20)"/>
<path d="M0 0 C0.55429687 0.42152344 1.10859375 0.84304687 1.6796875 1.27734375 C2.40414062 1.82519531 3.12859375 2.37304688 3.875 2.9375 C4.59429687 3.48277344 5.31359375 4.02804688 6.0546875 4.58984375 C7.94357079 6.03964624 7.94357079 6.03964624 10 7 C10 7.66 10 8.32 10 9 C5.37802694 11.21854707 2.23175837 12.38281159 -3 12 C-3.33 11.01 -3.66 10.02 -4 9 C-1.94766315 6.7522025 -0.99332739 5.9977758 2 5 C1.01 4.67 0.02 4.34 -1 4 C-0.67 2.68 -0.34 1.36 0 0 Z " fill="#465F78" transform="translate(36,25)"/>
<path d="M0 0 C0.33 0.99 0.66 1.98 1 3 C3.31 3 5.62 3 8 3 C8 3.99 8 4.98 8 6 C7.34 6 6.68 6 6 6 C5.67 6.99 5.34 7.98 5 9 C2.69 9 0.38 9 -2 9 C-1.125 2.25 -1.125 2.25 0 0 Z " fill="#5D7B9A" transform="translate(27,26)"/>
<path d="M0 0 C-1.485 2.475 -1.485 2.475 -3 5 C-4.79398884 4.74500159 -6.58520875 4.47046186 -8.375 4.1875 C-9.37273438 4.03667969 -10.37046875 3.88585937 -11.3984375 3.73046875 C-14 3 -14 3 -16 0 C-14.27185839 -0.19672365 -12.54240803 -0.38196799 -10.8125 -0.5625 C-9.84957031 -0.66691406 -8.88664062 -0.77132813 -7.89453125 -0.87890625 C-5.05766623 -0.99758751 -2.74576329 -0.67765639 0 0 Z " fill="#939FAB" transform="translate(41,17)"/>
<path d="M0 0 C0.969375 0.309375 1.93875 0.61875 2.9375 0.9375 C-0.79175783 4.1803329 -5.36488735 6.4494901 -10.0625 7.9375 C-11.0525 7.6075 -12.0425 7.2775 -13.0625 6.9375 C-4.62074616 -0.73856189 -4.62074616 -0.73856189 0 0 Z M-3.0625 0.9375 C-3.3925 1.5975 -3.7225 2.2575 -4.0625 2.9375 C-3.4025 2.9375 -2.7425 2.9375 -2.0625 2.9375 C-2.3925 2.2775 -2.7225 1.6175 -3.0625 0.9375 Z " fill="#2E3B48" transform="translate(17.0625,30.0625)"/>
<path d="M0 0 C0.99 0.33 1.98 0.66 3 1 C3 2.65 3 4.3 3 6 C0.36 6 -2.28 6 -5 6 C-3.63016497 2.83884224 -3.0109362 2.0072908 0 0 Z M-6 6 C-5.67 6.66 -5.34 7.32 -5 8 C-5.66 7.67 -6.32 7.34 -7 7 C-6.67 6.67 -6.34 6.34 -6 6 Z " fill="#5C738A" transform="translate(20,25)"/>
<path d="M0 0 C0.55429687 0.42152344 1.10859375 0.84304687 1.6796875 1.27734375 C2.40414062 1.82519531 3.12859375 2.37304688 3.875 2.9375 C4.59429687 3.48277344 5.31359375 4.02804688 6.0546875 4.58984375 C7.94357079 6.03964624 7.94357079 6.03964624 10 7 C10 7.66 10 8.32 10 9 C7.125 8.6875 7.125 8.6875 4 8 C3.34 7.01 2.68 6.02 2 5 C1.01 4.67 0.02 4.34 -1 4 C-0.67 2.68 -0.34 1.36 0 0 Z " fill="#2F3B46" transform="translate(36,25)"/>
<path d="M0 0 C2.31 0 4.62 0 7 0 C6.67 1.32 6.34 2.64 6 4 C3.69 4 1.38 4 -1 4 C-0.67 2.68 -0.34 1.36 0 0 Z " fill="#7D99B5" transform="translate(29,25)"/>
<path d="M0 0 C4.97209562 1.76429199 9.43438061 4.3939166 14 7 C13.01 7.66 12.02 8.32 11 9 C9.16384919 7.69144447 7.33114211 6.37805538 5.5 5.0625 C4.4790625 4.33160156 3.458125 3.60070312 2.40625 2.84765625 C1.6121875 2.23792969 0.818125 1.62820313 0 1 C0 0.67 0 0.34 0 0 Z " fill="#43474A" transform="translate(7,10)"/>
<path d="M0 0 C0.33 0.99 0.66 1.98 1 3 C3.31 3 5.62 3 8 3 C8 3.99 8 4.98 8 6 C4.7 6 1.4 6 -2 6 C-1.34 4.02 -0.68 2.04 0 0 Z " fill="#576F87" transform="translate(27,26)"/>
<path d="M0 0 C1.65 1.32 3.3 2.64 5 4 C2.6875 5.5625 2.6875 5.5625 0 7 C-0.99 6.67 -1.98 6.34 -3 6 C-2.01 4.02 -1.02 2.04 0 0 Z " fill="#1C2A39" transform="translate(20,38)"/>
<path d="M0 0 C1.43931117 0.45261358 2.87638999 0.91232979 4.3125 1.375 C5.11300781 1.63023438 5.91351563 1.88546875 6.73828125 2.1484375 C9 3 9 3 12 5 C9.9375 5.8125 9.9375 5.8125 7 6 C4.42776878 4.62353742 2.16251431 2.95685733 0 1 C0 0.67 0 0.34 0 0 Z " fill="#636568" transform="translate(0,0)"/>
<path d="M0 0 C-0.66 1.98 -1.32 3.96 -2 6 C-4 6 -6 6 -8 6 C-7.0479279 4.99403703 -6.08812654 3.99538437 -5.125 3 C-4.59132812 2.443125 -4.05765625 1.88625 -3.5078125 1.3125 C-2 0 -2 0 0 0 Z " fill="#4B4C4F" transform="translate(48,2)"/>
<path d="M0 0 C2.97 0 5.94 0 9 0 C8.67 0.99 8.34 1.98 8 3 C5.6568787 2.74438677 3.32156597 2.40729228 1 2 C0.67 1.34 0.34 0.68 0 0 Z " fill="#A1B2C3" transform="translate(30,19)"/>
</svg>
