<svg width="1920" height="1080" viewBox="0 0 1920 1080" fill="none" xmlns="http://www.w3.org/2000/svg">
<g clip-path="url(#clip0_2143_812)">
<rect width="1920" height="1080" fill="#030303"/>
<g filter="url(#filter0_f_2143_812)">
<g opacity="0.2" filter="url(#filter1_f_2143_812)">
<ellipse cx="3.75849" cy="274.479" rx="3.75849" ry="274.479" transform="matrix(-0.971639 -0.35195 0.448997 0.863837 124.575 44.7826)" fill="url(#paint0_linear_2143_812)" fill-opacity="0.8"/>
</g>
<g opacity="0.2" filter="url(#filter2_f_2143_812)">
<ellipse cx="3.36713" cy="294.553" rx="3.36713" ry="294.553" transform="matrix(-1.00656 -0.255454 0.51223 0.834057 68.2937 -118.176)" fill="url(#paint1_linear_2143_812)" fill-opacity="0.8"/>
</g>
<g opacity="0.2" filter="url(#filter3_f_2143_812)">
<ellipse cx="3.33258" cy="296.158" rx="3.33258" ry="296.158" transform="matrix(-1.00938 -0.245785 0.517247 0.831475 169.47 -18.3382)" fill="url(#paint2_linear_2143_812)" fill-opacity="0.8"/>
</g>
<g opacity="0.2" filter="url(#filter4_f_2143_812)">
<ellipse cx="3.40737" cy="292.651" rx="3.40737" ry="292.651" transform="matrix(-1.0032 -0.26644 0.506292 0.83707 57.6121 -115.491)" fill="url(#paint3_linear_2143_812)" fill-opacity="0.8"/>
</g>
<g opacity="0.2" filter="url(#filter5_f_2143_812)">
<ellipse cx="3.53137" cy="286.566" rx="3.53137" ry="286.566" transform="matrix(-0.992486 -0.298603 0.487282 0.846408 25.0974 -129.917)" fill="url(#paint4_linear_2143_812)" fill-opacity="0.8"/>
</g>
<g opacity="0.2" filter="url(#filter6_f_2143_812)">
<ellipse cx="3.72791" cy="276.182" rx="3.72791" ry="276.182" transform="matrix(-0.974525 -0.345129 0.454461 0.861459 -2.43685 -150.542)" fill="url(#paint5_linear_2143_812)" fill-opacity="0.8"/>
</g>
<g opacity="0.2" filter="url(#filter7_f_2143_812)">
<ellipse cx="3.37076" cy="294.383" rx="3.37076" ry="294.383" transform="matrix(-1.00626 -0.256456 0.511699 0.834329 72.1092 -135.2)" fill="url(#paint6_linear_2143_812)" fill-opacity="0.8"/>
</g>
<g opacity="0.2" filter="url(#filter8_f_2143_812)">
<ellipse cx="3.84452" cy="269.554" rx="3.84452" ry="269.554" transform="matrix(-0.963399 -0.370621 0.433021 0.870587 76.1121 33.9486)" fill="url(#paint7_linear_2143_812)" fill-opacity="0.8"/>
</g>
<g opacity="0.2" filter="url(#filter9_f_2143_812)">
<ellipse cx="4.37877" cy="233.805" rx="4.37877" ry="233.805" transform="matrix(-0.908091 -0.474043 0.303991 0.914711 -2.7385 -67.8011)" fill="url(#paint8_linear_2143_812)" fill-opacity="0.8"/>
</g>
<g opacity="0.2" filter="url(#filter10_f_2143_812)">
<ellipse cx="8.89702" cy="366.496" rx="8.89702" ry="366.496" transform="matrix(-0.963399 -0.370621 0.433021 0.870587 14.4666 -57.29)" fill="url(#paint9_linear_2143_812)" fill-opacity="0.8"/>
</g>
<g opacity="0.2" filter="url(#filter11_f_2143_812)">
<ellipse cx="10.5979" cy="217.483" rx="10.5979" ry="217.483" transform="matrix(-0.884801 -0.509781 0.232845 0.931743 -32.6936 -78.0485)" fill="url(#paint10_linear_2143_812)" fill-opacity="0.8"/>
</g>
<g opacity="0.2" filter="url(#filter12_f_2143_812)">
<ellipse cx="178.359" cy="212.569" rx="178.359" ry="212.569" transform="matrix(1.06474 0.0215466 -0.791971 -0.677697 45.7068 146.647)" fill="url(#paint11_linear_2143_812)" fill-opacity="0.8"/>
</g>
<g opacity="0.2" filter="url(#filter13_f_2143_812)">
<ellipse cx="8.45714" cy="280.175" rx="8.45714" ry="280.175" transform="matrix(-0.981363 -0.328306 0.467169 0.855789 124.487 -59.1016)" fill="url(#paint12_linear_2143_812)" fill-opacity="0.8"/>
</g>
<g opacity="0.2" filter="url(#filter14_f_2143_812)">
<ellipse cx="6.87892" cy="311.463" rx="6.87892" ry="311.463" transform="matrix(-1.03437 -0.128871 0.566141 0.804491 195.101 -53.3402)" fill="url(#paint13_linear_2143_812)" fill-opacity="0.8"/>
</g>
<g opacity="0.2" filter="url(#filter15_f_2143_812)">
<ellipse cx="8.83224" cy="271.179" rx="8.83224" ry="271.179" transform="matrix(-0.966099 -0.364627 0.438322 0.86838 -59.7707 -148.951)" fill="url(#paint14_linear_2143_812)" fill-opacity="0.8"/>
</g>
</g>
<g filter="url(#filter16_f_2143_812)">
<g opacity="0.2" filter="url(#filter17_f_2143_812)">
<ellipse cx="3.75849" cy="274.479" rx="3.75849" ry="274.479" transform="matrix(0.971639 -0.35195 -0.448997 0.863837 1770.83 44.7826)" fill="url(#paint15_linear_2143_812)" fill-opacity="0.8"/>
</g>
<g opacity="0.2" filter="url(#filter18_f_2143_812)">
<ellipse cx="3.36713" cy="294.553" rx="3.36713" ry="294.553" transform="matrix(1.00656 -0.255454 -0.51223 0.834057 1827.11 -118.176)" fill="url(#paint16_linear_2143_812)" fill-opacity="0.8"/>
</g>
<g opacity="0.2" filter="url(#filter19_f_2143_812)">
<ellipse cx="3.33258" cy="296.158" rx="3.33258" ry="296.158" transform="matrix(1.00938 -0.245785 -0.517247 0.831475 1725.94 -18.3383)" fill="url(#paint17_linear_2143_812)" fill-opacity="0.8"/>
</g>
<g opacity="0.2" filter="url(#filter20_f_2143_812)">
<ellipse cx="3.40737" cy="292.651" rx="3.40737" ry="292.651" transform="matrix(1.0032 -0.26644 -0.506292 0.83707 1837.79 -115.491)" fill="url(#paint18_linear_2143_812)" fill-opacity="0.8"/>
</g>
<g opacity="0.2" filter="url(#filter21_f_2143_812)">
<ellipse cx="3.53137" cy="286.566" rx="3.53137" ry="286.566" transform="matrix(0.992486 -0.298603 -0.487282 0.846408 1870.31 -129.917)" fill="url(#paint19_linear_2143_812)" fill-opacity="0.8"/>
</g>
<g opacity="0.2" filter="url(#filter22_f_2143_812)">
<ellipse cx="3.72791" cy="276.182" rx="3.72791" ry="276.182" transform="matrix(0.974525 -0.345129 -0.454461 0.861459 1897.84 -150.542)" fill="url(#paint20_linear_2143_812)" fill-opacity="0.8"/>
</g>
<g opacity="0.2" filter="url(#filter23_f_2143_812)">
<ellipse cx="3.37076" cy="294.383" rx="3.37076" ry="294.383" transform="matrix(1.00626 -0.256456 -0.511699 0.834329 1823.3 -135.2)" fill="url(#paint21_linear_2143_812)" fill-opacity="0.8"/>
</g>
<g opacity="0.2" filter="url(#filter24_f_2143_812)">
<ellipse cx="3.84452" cy="269.554" rx="3.84452" ry="269.554" transform="matrix(0.963399 -0.370621 -0.433021 0.870587 1819.29 33.9485)" fill="url(#paint22_linear_2143_812)" fill-opacity="0.8"/>
</g>
<g opacity="0.2" filter="url(#filter25_f_2143_812)">
<ellipse cx="4.37877" cy="233.805" rx="4.37877" ry="233.805" transform="matrix(0.908091 -0.474043 -0.303991 0.914711 1898.14 -67.8011)" fill="url(#paint23_linear_2143_812)" fill-opacity="0.8"/>
</g>
<g opacity="0.2" filter="url(#filter26_f_2143_812)">
<ellipse cx="8.89702" cy="366.496" rx="8.89702" ry="366.496" transform="matrix(0.963399 -0.370621 -0.433021 0.870587 1880.94 -57.29)" fill="url(#paint24_linear_2143_812)" fill-opacity="0.8"/>
</g>
<g opacity="0.2" filter="url(#filter27_f_2143_812)">
<ellipse cx="10.5979" cy="217.483" rx="10.5979" ry="217.483" transform="matrix(0.884801 -0.509781 -0.232845 0.931743 1928.1 -78.0485)" fill="url(#paint25_linear_2143_812)" fill-opacity="0.8"/>
</g>
<g opacity="0.2" filter="url(#filter28_f_2143_812)">
<ellipse cx="178.359" cy="212.569" rx="178.359" ry="212.569" transform="matrix(-1.06474 0.0215466 0.791971 -0.677697 1849.7 146.647)" fill="url(#paint26_linear_2143_812)" fill-opacity="0.8"/>
</g>
<g opacity="0.2" filter="url(#filter29_f_2143_812)">
<ellipse cx="8.45714" cy="280.175" rx="8.45714" ry="280.175" transform="matrix(0.981363 -0.328306 -0.467169 0.855789 1770.92 -59.1016)" fill="url(#paint27_linear_2143_812)" fill-opacity="0.8"/>
</g>
<g opacity="0.2" filter="url(#filter30_f_2143_812)">
<ellipse cx="6.87892" cy="311.463" rx="6.87892" ry="311.463" transform="matrix(1.03437 -0.128871 -0.566141 0.804491 1700.3 -53.3402)" fill="url(#paint28_linear_2143_812)" fill-opacity="0.8"/>
</g>
<g opacity="0.2" filter="url(#filter31_f_2143_812)">
<ellipse cx="8.83224" cy="271.179" rx="8.83224" ry="271.179" transform="matrix(0.966099 -0.364627 -0.438322 0.86838 1955.18 -148.951)" fill="url(#paint29_linear_2143_812)" fill-opacity="0.8"/>
</g>
</g>
<g style="mix-blend-mode:plus-lighter" opacity="0.3">
<path fill-rule="evenodd" clip-rule="evenodd" d="M956.447 785L1110.53 818.721L1218.32 852.422L1350.39 899.453L1350.39 899.454L1512.43 956.108L1512.43 956.11L1674.46 1014.91L1674.47 1014.91L1860 1078.49L1859.83 1080L61.1849 1080L61 1078.5L228.727 1014.91L399.68 956.107L399.694 956.103L580.365 899.449L580.369 899.448L726.195 852.422L726.201 852.421L826.678 818.726L956.447 785ZM726.442 853.932L585.369 899.424H707.43L806.405 853.932H726.442ZM809.974 853.932L711 899.424H795.19L859.247 853.932L809.974 853.932ZM861.411 852.395L813.317 852.395L883.273 820.241H906.687L861.411 852.395ZM861.747 853.932L797.69 899.424L883.184 899.424L912.198 853.932H861.747ZM913.178 852.395H863.91L909.187 820.241H933.685L913.178 852.395ZM913.788 853.932L884.774 899.424H946.886L950.465 853.932H913.788ZM950.586 852.395H914.768L935.275 820.241H953.116L950.586 852.395ZM951.724 853.932L948.144 899.424H1010.32L988.469 853.932H951.724ZM987.731 852.395H951.845L954.375 820.241H972.284L987.731 852.395ZM989.923 853.932L1011.78 899.424H1097.13L1040.36 853.932H989.923ZM1038.44 852.395H989.185L973.738 820.241H998.314L1038.44 852.395ZM1042.65 853.932L1099.42 899.424H1184.14L1092.33 853.932H1042.65ZM1089.23 852.395H1040.73L1000.6 820.241H1024.33L1089.23 852.395ZM1095.67 853.932L1187.49 899.424H1345.81L1218.06 853.932H1095.67ZM1213.16 852.395H1092.57L1027.67 820.241H1110.32L1213.16 852.395ZM1103.32 818.704H1024.57L962.273 787.836L1103.32 818.704ZM949.64 789.736L886.616 818.704H908.85L949.64 789.736ZM911.35 818.704H934.665L953.969 788.437L911.35 818.704ZM955.627 788.33L936.255 818.704H953.237L955.627 788.33ZM954.496 818.704H971.546L956.895 788.208L954.496 818.704ZM958.356 788.222L973 818.704H996.397L958.356 788.222ZM998.687 818.704H1021.23L962.166 789.44L998.687 818.704ZM883.046 818.704L948.419 788.657L832.803 818.704H883.046ZM826.909 820.241L731.026 852.395H809.747L879.704 820.241H826.909ZM1350.13 900.96H1190.59L1301.83 956.079H1507.77L1350.13 900.96ZM1512.17 957.615H1304.93L1420.5 1014.88H1669.97L1512.17 957.615ZM1674.21 1016.41H1423.61L1548.84 1078.46L1855.26 1078.46L1674.21 1016.41ZM1545.49 1078.46L1420.26 1016.41H1245.42L1322.86 1078.46H1545.49ZM1320.56 1078.46L1243.13 1016.41H1067.98L1097.79 1078.46H1320.56ZM1096.34 1078.46L1066.53 1016.41H938.939L934.056 1078.46H1096.34ZM932.798 1078.46L937.68 1016.41L810.16 1016.41L770.586 1078.46H932.798ZM768.996 1078.46L808.569 1016.41H632.957L545.586 1078.46H768.996ZM543.087 1078.46L630.457 1016.41H456.47L321.474 1078.46H543.087ZM317.905 1078.46L452.901 1016.41H228.991L65.3319 1078.46H317.905ZM233.449 1014.88L399.936 957.615H580.827L456.243 1014.88H233.449ZM459.813 1014.88H632.62L713.252 957.615H584.397L459.813 1014.88ZM587.739 956.079H715.415L793.027 900.96H707.657L587.739 956.079ZM704.087 900.96H580.603L404.828 956.079H584.17L704.087 900.96ZM795.526 900.96L717.915 956.079H847.05L882.204 900.96L795.526 900.96ZM883.794 900.96L848.641 956.079L942.428 956.079L946.765 900.96H883.794ZM948.023 900.96L943.686 956.079H1037.54L1011.06 900.96H948.023ZM1012.52 900.96L1039 956.079H1167.83L1099.05 900.96H1012.52ZM1101.34 900.96L1170.12 956.079H1298.49L1187.24 900.96H1101.34ZM1301.59 957.615H1172.04L1243.5 1014.88H1417.16L1301.59 957.615ZM1241.21 1014.88L1169.75 957.615H1039.73L1067.24 1014.88H1241.21ZM1065.79 1014.88L1038.28 957.615H943.565L939.06 1014.88H1065.79ZM937.801 1014.88L942.307 957.615L847.661 957.615L811.14 1014.88L937.801 1014.88ZM809.549 1014.88L846.071 957.615H715.751L635.12 1014.88H809.549Z" fill="url(#paint30_linear_2143_812)"/>
</g>
<circle cx="958.004" cy="702.996" r="607.996" stroke="#050403" stroke-width="1.24081"/>
<g style="mix-blend-mode:plus-lighter" filter="url(#filter32_f_2143_812)">
<path d="M350.32 722.585C346.569 606.226 376.304 491.235 435.992 391.28" stroke="url(#paint31_linear_2143_812)" stroke-width="2.48162" stroke-linecap="round"/>
</g>
<g style="mix-blend-mode:plus-lighter">
<path d="M350.32 722.585C346.569 606.226 376.304 491.235 435.992 391.28" stroke="url(#paint32_linear_2143_812)" stroke-width="2.48162" stroke-linecap="round"/>
<path d="M350.32 722.585C346.569 606.226 376.304 491.235 435.992 391.28" stroke="url(#paint33_linear_2143_812)" stroke-width="2.48162" stroke-linecap="round"/>
</g>
<g style="mix-blend-mode:plus-lighter" filter="url(#filter33_f_2143_812)">
<path d="M1411.68 298.235C1489.19 385.107 1540.12 492.404 1558.43 607.376" stroke="url(#paint34_linear_2143_812)" stroke-width="2.48162" stroke-linecap="round"/>
</g>
<g style="mix-blend-mode:plus-lighter">
<path d="M1413.36 300.125C1490.5 387.319 1540.99 494.827 1558.82 609.874" stroke="url(#paint35_linear_2143_812)" stroke-opacity="0.8" stroke-width="2.48162" stroke-linecap="round"/>
<path d="M1413.36 300.125C1490.5 387.319 1540.99 494.827 1558.82 609.874" stroke="url(#paint36_linear_2143_812)" stroke-width="2.48162" stroke-linecap="round"/>
</g>
</g>
<defs>
<filter id="filter0_f_2143_812" x="-232.52" y="-198.194" width="819.316" height="821.757" filterUnits="userSpaceOnUse" color-interpolation-filters="sRGB">
<feFlood flood-opacity="0" result="BackgroundImageFix"/>
<feBlend mode="normal" in="SourceGraphic" in2="BackgroundImageFix" result="shape"/>
<feGaussianBlur stdDeviation="23" result="effect1_foregroundBlur_2143_812"/>
</filter>
<filter id="filter1_f_2143_812" x="115.868" y="38.456" width="256.591" height="484.218" filterUnits="userSpaceOnUse" color-interpolation-filters="sRGB">
<feFlood flood-opacity="0" result="BackgroundImageFix"/>
<feBlend mode="normal" in="SourceGraphic" in2="BackgroundImageFix" result="shape"/>
<feGaussianBlur stdDeviation="2.5" result="effect1_foregroundBlur_2143_812"/>
</filter>
<filter id="filter2_f_2143_812" x="59.8657" y="-124.037" width="311.835" height="501.351" filterUnits="userSpaceOnUse" color-interpolation-filters="sRGB">
<feFlood flood-opacity="0" result="BackgroundImageFix"/>
<feBlend mode="normal" in="SourceGraphic" in2="BackgroundImageFix" result="shape"/>
<feGaussianBlur stdDeviation="2.5" result="effect1_foregroundBlur_2143_812"/>
</filter>
<filter id="filter3_f_2143_812" x="161.068" y="-24.1587" width="316.449" height="502.498" filterUnits="userSpaceOnUse" color-interpolation-filters="sRGB">
<feFlood flood-opacity="0" result="BackgroundImageFix"/>
<feBlend mode="normal" in="SourceGraphic" in2="BackgroundImageFix" result="shape"/>
<feGaussianBlur stdDeviation="2.5" result="effect1_foregroundBlur_2143_812"/>
</filter>
<filter id="filter4_f_2143_812" x="49.1536" y="-121.4" width="306.414" height="499.943" filterUnits="userSpaceOnUse" color-interpolation-filters="sRGB">
<feFlood flood-opacity="0" result="BackgroundImageFix"/>
<feBlend mode="normal" in="SourceGraphic" in2="BackgroundImageFix" result="shape"/>
<feGaussianBlur stdDeviation="2.5" result="effect1_foregroundBlur_2143_812"/>
</filter>
<filter id="filter5_f_2143_812" x="16.5477" y="-135.974" width="289.367" height="495.109" filterUnits="userSpaceOnUse" color-interpolation-filters="sRGB">
<feFlood flood-opacity="0" result="BackgroundImageFix"/>
<feBlend mode="normal" in="SourceGraphic" in2="BackgroundImageFix" result="shape"/>
<feGaussianBlur stdDeviation="2.5" result="effect1_foregroundBlur_2143_812"/>
</filter>
<filter id="filter6_f_2143_812" x="-11.1234" y="-156.832" width="261.135" height="485.846" filterUnits="userSpaceOnUse" color-interpolation-filters="sRGB">
<feFlood flood-opacity="0" result="BackgroundImageFix"/>
<feBlend mode="normal" in="SourceGraphic" in2="BackgroundImageFix" result="shape"/>
<feGaussianBlur stdDeviation="2.5" result="effect1_foregroundBlur_2143_812"/>
</filter>
<filter id="filter7_f_2143_812" x="63.6784" y="-141.066" width="311.348" height="501.227" filterUnits="userSpaceOnUse" color-interpolation-filters="sRGB">
<feFlood flood-opacity="0" result="BackgroundImageFix"/>
<feBlend mode="normal" in="SourceGraphic" in2="BackgroundImageFix" result="shape"/>
<feGaussianBlur stdDeviation="2.5" result="effect1_foregroundBlur_2143_812"/>
</filter>
<filter id="filter8_f_2143_812" x="67.3484" y="27.5193" width="243.565" height="479.35" filterUnits="userSpaceOnUse" color-interpolation-filters="sRGB">
<feFlood flood-opacity="0" result="BackgroundImageFix"/>
<feBlend mode="normal" in="SourceGraphic" in2="BackgroundImageFix" result="shape"/>
<feGaussianBlur stdDeviation="2.5" result="effect1_foregroundBlur_2143_812"/>
</filter>
<filter id="filter9_f_2143_812" x="-11.8279" y="-74.8871" width="152.375" height="437.749" filterUnits="userSpaceOnUse" color-interpolation-filters="sRGB">
<feFlood flood-opacity="0" result="BackgroundImageFix"/>
<feBlend mode="normal" in="SourceGraphic" in2="BackgroundImageFix" result="shape"/>
<feGaussianBlur stdDeviation="2.5" result="effect1_foregroundBlur_2143_812"/>
</filter>
<filter id="filter10_f_2143_812" x="0.659744" y="-65.6048" width="327.871" height="648.167" filterUnits="userSpaceOnUse" color-interpolation-filters="sRGB">
<feFlood flood-opacity="0" result="BackgroundImageFix"/>
<feBlend mode="normal" in="SourceGraphic" in2="BackgroundImageFix" result="shape"/>
<feGaussianBlur stdDeviation="2.5" result="effect1_foregroundBlur_2143_812"/>
</filter>
<filter id="filter11_f_2143_812" x="-47.9406" y="-88.5246" width="113.02" height="415.424" filterUnits="userSpaceOnUse" color-interpolation-filters="sRGB">
<feFlood flood-opacity="0" result="BackgroundImageFix"/>
<feBlend mode="normal" in="SourceGraphic" in2="BackgroundImageFix" result="shape"/>
<feGaussianBlur stdDeviation="2.5" result="effect1_foregroundBlur_2143_812"/>
</filter>
<filter id="filter12_f_2143_812" x="-291.52" y="-242.676" width="717.571" height="498.219" filterUnits="userSpaceOnUse" color-interpolation-filters="sRGB">
<feFlood flood-opacity="0" result="BackgroundImageFix"/>
<feBlend mode="normal" in="SourceGraphic" in2="BackgroundImageFix" result="shape"/>
<feGaussianBlur stdDeviation="52.5" result="effect1_foregroundBlur_2143_812"/>
</filter>
<filter id="filter13_f_2143_812" x="110.92" y="-66.8945" width="272.313" height="489.574" filterUnits="userSpaceOnUse" color-interpolation-filters="sRGB">
<feFlood flood-opacity="0" result="BackgroundImageFix"/>
<feBlend mode="normal" in="SourceGraphic" in2="BackgroundImageFix" result="shape"/>
<feGaussianBlur stdDeviation="2.5" result="effect1_foregroundBlur_2143_812"/>
</filter>
<filter id="filter14_f_2143_812" x="182.84" y="-59.2283" width="362.956" height="511.142" filterUnits="userSpaceOnUse" color-interpolation-filters="sRGB">
<feFlood flood-opacity="0" result="BackgroundImageFix"/>
<feBlend mode="normal" in="SourceGraphic" in2="BackgroundImageFix" result="shape"/>
<feGaussianBlur stdDeviation="2.5" result="effect1_foregroundBlur_2143_812"/>
</filter>
<filter id="filter15_f_2143_812" x="-73.6146" y="-157.194" width="248.349" height="481.018" filterUnits="userSpaceOnUse" color-interpolation-filters="sRGB">
<feFlood flood-opacity="0" result="BackgroundImageFix"/>
<feBlend mode="normal" in="SourceGraphic" in2="BackgroundImageFix" result="shape"/>
<feGaussianBlur stdDeviation="2.5" result="effect1_foregroundBlur_2143_812"/>
</filter>
<filter id="filter16_f_2143_812" x="1308.61" y="-198.194" width="819.316" height="821.757" filterUnits="userSpaceOnUse" color-interpolation-filters="sRGB">
<feFlood flood-opacity="0" result="BackgroundImageFix"/>
<feBlend mode="normal" in="SourceGraphic" in2="BackgroundImageFix" result="shape"/>
<feGaussianBlur stdDeviation="23" result="effect1_foregroundBlur_2143_812"/>
</filter>
<filter id="filter17_f_2143_812" x="1522.95" y="38.456" width="256.591" height="484.218" filterUnits="userSpaceOnUse" color-interpolation-filters="sRGB">
<feFlood flood-opacity="0" result="BackgroundImageFix"/>
<feBlend mode="normal" in="SourceGraphic" in2="BackgroundImageFix" result="shape"/>
<feGaussianBlur stdDeviation="2.5" result="effect1_foregroundBlur_2143_812"/>
</filter>
<filter id="filter18_f_2143_812" x="1523.71" y="-124.037" width="311.835" height="501.351" filterUnits="userSpaceOnUse" color-interpolation-filters="sRGB">
<feFlood flood-opacity="0" result="BackgroundImageFix"/>
<feBlend mode="normal" in="SourceGraphic" in2="BackgroundImageFix" result="shape"/>
<feGaussianBlur stdDeviation="2.5" result="effect1_foregroundBlur_2143_812"/>
</filter>
<filter id="filter19_f_2143_812" x="1417.89" y="-24.1587" width="316.449" height="502.498" filterUnits="userSpaceOnUse" color-interpolation-filters="sRGB">
<feFlood flood-opacity="0" result="BackgroundImageFix"/>
<feBlend mode="normal" in="SourceGraphic" in2="BackgroundImageFix" result="shape"/>
<feGaussianBlur stdDeviation="2.5" result="effect1_foregroundBlur_2143_812"/>
</filter>
<filter id="filter20_f_2143_812" x="1539.84" y="-121.4" width="306.414" height="499.943" filterUnits="userSpaceOnUse" color-interpolation-filters="sRGB">
<feFlood flood-opacity="0" result="BackgroundImageFix"/>
<feBlend mode="normal" in="SourceGraphic" in2="BackgroundImageFix" result="shape"/>
<feGaussianBlur stdDeviation="2.5" result="effect1_foregroundBlur_2143_812"/>
</filter>
<filter id="filter21_f_2143_812" x="1589.49" y="-135.974" width="289.367" height="495.109" filterUnits="userSpaceOnUse" color-interpolation-filters="sRGB">
<feFlood flood-opacity="0" result="BackgroundImageFix"/>
<feBlend mode="normal" in="SourceGraphic" in2="BackgroundImageFix" result="shape"/>
<feGaussianBlur stdDeviation="2.5" result="effect1_foregroundBlur_2143_812"/>
</filter>
<filter id="filter22_f_2143_812" x="1645.39" y="-156.832" width="261.135" height="485.846" filterUnits="userSpaceOnUse" color-interpolation-filters="sRGB">
<feFlood flood-opacity="0" result="BackgroundImageFix"/>
<feBlend mode="normal" in="SourceGraphic" in2="BackgroundImageFix" result="shape"/>
<feGaussianBlur stdDeviation="2.5" result="effect1_foregroundBlur_2143_812"/>
</filter>
<filter id="filter23_f_2143_812" x="1520.38" y="-141.066" width="311.348" height="501.227" filterUnits="userSpaceOnUse" color-interpolation-filters="sRGB">
<feFlood flood-opacity="0" result="BackgroundImageFix"/>
<feBlend mode="normal" in="SourceGraphic" in2="BackgroundImageFix" result="shape"/>
<feGaussianBlur stdDeviation="2.5" result="effect1_foregroundBlur_2143_812"/>
</filter>
<filter id="filter24_f_2143_812" x="1584.49" y="27.5193" width="243.565" height="479.35" filterUnits="userSpaceOnUse" color-interpolation-filters="sRGB">
<feFlood flood-opacity="0" result="BackgroundImageFix"/>
<feBlend mode="normal" in="SourceGraphic" in2="BackgroundImageFix" result="shape"/>
<feGaussianBlur stdDeviation="2.5" result="effect1_foregroundBlur_2143_812"/>
</filter>
<filter id="filter25_f_2143_812" x="1754.86" y="-74.8871" width="152.375" height="437.749" filterUnits="userSpaceOnUse" color-interpolation-filters="sRGB">
<feFlood flood-opacity="0" result="BackgroundImageFix"/>
<feBlend mode="normal" in="SourceGraphic" in2="BackgroundImageFix" result="shape"/>
<feGaussianBlur stdDeviation="2.5" result="effect1_foregroundBlur_2143_812"/>
</filter>
<filter id="filter26_f_2143_812" x="1566.87" y="-65.6048" width="327.871" height="648.167" filterUnits="userSpaceOnUse" color-interpolation-filters="sRGB">
<feFlood flood-opacity="0" result="BackgroundImageFix"/>
<feBlend mode="normal" in="SourceGraphic" in2="BackgroundImageFix" result="shape"/>
<feGaussianBlur stdDeviation="2.5" result="effect1_foregroundBlur_2143_812"/>
</filter>
<filter id="filter27_f_2143_812" x="1830.33" y="-88.5246" width="113.02" height="415.424" filterUnits="userSpaceOnUse" color-interpolation-filters="sRGB">
<feFlood flood-opacity="0" result="BackgroundImageFix"/>
<feBlend mode="normal" in="SourceGraphic" in2="BackgroundImageFix" result="shape"/>
<feGaussianBlur stdDeviation="2.5" result="effect1_foregroundBlur_2143_812"/>
</filter>
<filter id="filter28_f_2143_812" x="1469.35" y="-242.676" width="717.571" height="498.219" filterUnits="userSpaceOnUse" color-interpolation-filters="sRGB">
<feFlood flood-opacity="0" result="BackgroundImageFix"/>
<feBlend mode="normal" in="SourceGraphic" in2="BackgroundImageFix" result="shape"/>
<feGaussianBlur stdDeviation="52.5" result="effect1_foregroundBlur_2143_812"/>
</filter>
<filter id="filter29_f_2143_812" x="1512.17" y="-66.8945" width="272.313" height="489.574" filterUnits="userSpaceOnUse" color-interpolation-filters="sRGB">
<feFlood flood-opacity="0" result="BackgroundImageFix"/>
<feBlend mode="normal" in="SourceGraphic" in2="BackgroundImageFix" result="shape"/>
<feGaussianBlur stdDeviation="2.5" result="effect1_foregroundBlur_2143_812"/>
</filter>
<filter id="filter30_f_2143_812" x="1349.61" y="-59.2283" width="362.957" height="511.142" filterUnits="userSpaceOnUse" color-interpolation-filters="sRGB">
<feFlood flood-opacity="0" result="BackgroundImageFix"/>
<feBlend mode="normal" in="SourceGraphic" in2="BackgroundImageFix" result="shape"/>
<feGaussianBlur stdDeviation="2.5" result="effect1_foregroundBlur_2143_812"/>
</filter>
<filter id="filter31_f_2143_812" x="1720.67" y="-157.194" width="248.349" height="481.018" filterUnits="userSpaceOnUse" color-interpolation-filters="sRGB">
<feFlood flood-opacity="0" result="BackgroundImageFix"/>
<feBlend mode="normal" in="SourceGraphic" in2="BackgroundImageFix" result="shape"/>
<feGaussianBlur stdDeviation="2.5" result="effect1_foregroundBlur_2143_812"/>
</filter>
<filter id="filter32_f_2143_812" x="331.392" y="372.668" width="123.212" height="368.529" filterUnits="userSpaceOnUse" color-interpolation-filters="sRGB">
<feFlood flood-opacity="0" result="BackgroundImageFix"/>
<feBlend mode="normal" in="SourceGraphic" in2="BackgroundImageFix" result="shape"/>
<feGaussianBlur stdDeviation="8.68565" result="effect1_foregroundBlur_2143_812"/>
</filter>
<filter id="filter33_f_2143_812" x="1388.11" y="274.66" width="193.898" height="356.291" filterUnits="userSpaceOnUse" color-interpolation-filters="sRGB">
<feFlood flood-opacity="0" result="BackgroundImageFix"/>
<feBlend mode="normal" in="SourceGraphic" in2="BackgroundImageFix" result="shape"/>
<feGaussianBlur stdDeviation="11.1673" result="effect1_foregroundBlur_2143_812"/>
</filter>
<linearGradient id="paint0_linear_2143_812" x1="3.86496" y1="0" x2="3.86496" y2="548.958" gradientUnits="userSpaceOnUse">
<stop stop-color="#FFA362"/>
<stop offset="1" stop-color="#FFA362"/>
</linearGradient>
<linearGradient id="paint1_linear_2143_812" x1="3.46252" y1="0" x2="3.46252" y2="589.105" gradientUnits="userSpaceOnUse">
<stop stop-color="#FFA362"/>
<stop offset="1" stop-color="#FFA362"/>
</linearGradient>
<linearGradient id="paint2_linear_2143_812" x1="3.42699" y1="0" x2="3.42699" y2="592.315" gradientUnits="userSpaceOnUse">
<stop stop-color="#FFA362"/>
<stop offset="1" stop-color="#FFA362"/>
</linearGradient>
<linearGradient id="paint3_linear_2143_812" x1="3.50389" y1="0" x2="3.50389" y2="585.302" gradientUnits="userSpaceOnUse">
<stop stop-color="#FFA362"/>
<stop offset="1" stop-color="#FFA362"/>
</linearGradient>
<linearGradient id="paint4_linear_2143_812" x1="3.63141" y1="0" x2="3.63141" y2="573.133" gradientUnits="userSpaceOnUse">
<stop stop-color="#FFA362"/>
<stop offset="1" stop-color="#FFA362"/>
</linearGradient>
<linearGradient id="paint5_linear_2143_812" x1="3.83352" y1="0" x2="3.83352" y2="552.364" gradientUnits="userSpaceOnUse">
<stop stop-color="#FFA362"/>
<stop offset="1" stop-color="#FFA362"/>
</linearGradient>
<linearGradient id="paint6_linear_2143_812" x1="3.46625" y1="0" x2="3.46625" y2="588.765" gradientUnits="userSpaceOnUse">
<stop stop-color="#FFA362"/>
<stop offset="1" stop-color="#FFA362"/>
</linearGradient>
<linearGradient id="paint7_linear_2143_812" x1="3.95343" y1="0" x2="3.95343" y2="539.109" gradientUnits="userSpaceOnUse">
<stop stop-color="#FFA362"/>
<stop offset="1" stop-color="#FFA362"/>
</linearGradient>
<linearGradient id="paint8_linear_2143_812" x1="4.50281" y1="0" x2="4.50281" y2="467.61" gradientUnits="userSpaceOnUse">
<stop stop-color="#FFA362"/>
<stop offset="1" stop-color="#FFA362"/>
</linearGradient>
<linearGradient id="paint9_linear_2143_812" x1="9.14906" y1="0" x2="9.14906" y2="732.991" gradientUnits="userSpaceOnUse">
<stop stop-color="#FFA362"/>
<stop offset="1" stop-color="#FFA362"/>
</linearGradient>
<linearGradient id="paint10_linear_2143_812" x1="10.8982" y1="0" x2="10.8982" y2="434.967" gradientUnits="userSpaceOnUse">
<stop stop-color="#FFA362"/>
<stop offset="1" stop-color="#FFA362"/>
</linearGradient>
<linearGradient id="paint11_linear_2143_812" x1="183.412" y1="0" x2="183.412" y2="425.137" gradientUnits="userSpaceOnUse">
<stop stop-color="#FFA362"/>
<stop offset="1" stop-color="#FFA362"/>
</linearGradient>
<linearGradient id="paint12_linear_2143_812" x1="8.69672" y1="0" x2="8.69672" y2="560.35" gradientUnits="userSpaceOnUse">
<stop stop-color="#FFA362"/>
<stop offset="1" stop-color="#FFA362"/>
</linearGradient>
<linearGradient id="paint13_linear_2143_812" x1="7.07379" y1="0" x2="7.07379" y2="622.926" gradientUnits="userSpaceOnUse">
<stop stop-color="#FFA362"/>
<stop offset="1" stop-color="#FFA362"/>
</linearGradient>
<linearGradient id="paint14_linear_2143_812" x1="9.08244" y1="0" x2="9.08244" y2="542.358" gradientUnits="userSpaceOnUse">
<stop stop-color="#FFA362"/>
<stop offset="1" stop-color="#FFA362"/>
</linearGradient>
<linearGradient id="paint15_linear_2143_812" x1="3.86496" y1="0" x2="3.86496" y2="548.958" gradientUnits="userSpaceOnUse">
<stop stop-color="#FFA362"/>
<stop offset="1" stop-color="#FFA362"/>
</linearGradient>
<linearGradient id="paint16_linear_2143_812" x1="3.46252" y1="0" x2="3.46252" y2="589.105" gradientUnits="userSpaceOnUse">
<stop stop-color="#FFA362"/>
<stop offset="1" stop-color="#FFA362"/>
</linearGradient>
<linearGradient id="paint17_linear_2143_812" x1="3.42699" y1="0" x2="3.42699" y2="592.315" gradientUnits="userSpaceOnUse">
<stop stop-color="#FFA362"/>
<stop offset="1" stop-color="#FFA362"/>
</linearGradient>
<linearGradient id="paint18_linear_2143_812" x1="3.50389" y1="0" x2="3.50389" y2="585.302" gradientUnits="userSpaceOnUse">
<stop stop-color="#FFA362"/>
<stop offset="1" stop-color="#FFA362"/>
</linearGradient>
<linearGradient id="paint19_linear_2143_812" x1="3.63141" y1="0" x2="3.63141" y2="573.133" gradientUnits="userSpaceOnUse">
<stop stop-color="#FFA362"/>
<stop offset="1" stop-color="#FFA362"/>
</linearGradient>
<linearGradient id="paint20_linear_2143_812" x1="3.83352" y1="0" x2="3.83352" y2="552.364" gradientUnits="userSpaceOnUse">
<stop stop-color="#FFA362"/>
<stop offset="1" stop-color="#FFA362"/>
</linearGradient>
<linearGradient id="paint21_linear_2143_812" x1="3.46625" y1="0" x2="3.46625" y2="588.765" gradientUnits="userSpaceOnUse">
<stop stop-color="#FFA362"/>
<stop offset="1" stop-color="#FFA362"/>
</linearGradient>
<linearGradient id="paint22_linear_2143_812" x1="3.95343" y1="0" x2="3.95343" y2="539.109" gradientUnits="userSpaceOnUse">
<stop stop-color="#FFA362"/>
<stop offset="1" stop-color="#FFA362"/>
</linearGradient>
<linearGradient id="paint23_linear_2143_812" x1="4.50281" y1="0" x2="4.50281" y2="467.61" gradientUnits="userSpaceOnUse">
<stop stop-color="#FFA362"/>
<stop offset="1" stop-color="#FFA362"/>
</linearGradient>
<linearGradient id="paint24_linear_2143_812" x1="9.14906" y1="0" x2="9.14906" y2="732.991" gradientUnits="userSpaceOnUse">
<stop stop-color="#FFA362"/>
<stop offset="1" stop-color="#FFA362"/>
</linearGradient>
<linearGradient id="paint25_linear_2143_812" x1="10.8982" y1="0" x2="10.8982" y2="434.967" gradientUnits="userSpaceOnUse">
<stop stop-color="#FFA362"/>
<stop offset="1" stop-color="#FFA362"/>
</linearGradient>
<linearGradient id="paint26_linear_2143_812" x1="183.412" y1="0" x2="183.412" y2="425.137" gradientUnits="userSpaceOnUse">
<stop stop-color="#FFA362"/>
<stop offset="1" stop-color="#FFA362"/>
</linearGradient>
<linearGradient id="paint27_linear_2143_812" x1="8.69672" y1="0" x2="8.69672" y2="560.35" gradientUnits="userSpaceOnUse">
<stop stop-color="#FFA362"/>
<stop offset="1" stop-color="#FFA362"/>
</linearGradient>
<linearGradient id="paint28_linear_2143_812" x1="7.07379" y1="0" x2="7.07379" y2="622.926" gradientUnits="userSpaceOnUse">
<stop stop-color="#FFA362"/>
<stop offset="1" stop-color="#FFA362"/>
</linearGradient>
<linearGradient id="paint29_linear_2143_812" x1="9.08244" y1="0" x2="9.08244" y2="542.358" gradientUnits="userSpaceOnUse">
<stop stop-color="#FFA362"/>
<stop offset="1" stop-color="#FFA362"/>
</linearGradient>
<linearGradient id="paint30_linear_2143_812" x1="961.452" y1="703.586" x2="960.827" y2="1079.23" gradientUnits="userSpaceOnUse">
<stop offset="0.255" stop-color="#FF7440" stop-opacity="0"/>
<stop offset="1" stop-color="#F48332" stop-opacity="0.5"/>
</linearGradient>
<linearGradient id="paint31_linear_2143_812" x1="350" y1="716.579" x2="461.25" y2="229.535" gradientUnits="userSpaceOnUse">
<stop stop-color="#FB782D"/>
<stop offset="0.245" stop-color="#FB782D" stop-opacity="0.3"/>
<stop offset="0.661847" stop-color="#FB782D" stop-opacity="0"/>
</linearGradient>
<linearGradient id="paint32_linear_2143_812" x1="350" y1="716.579" x2="461.25" y2="229.535" gradientUnits="userSpaceOnUse">
<stop stop-color="#FB782D"/>
<stop offset="0.245" stop-color="#FB782D" stop-opacity="0.3"/>
<stop offset="0.661847" stop-color="#FB782D" stop-opacity="0"/>
</linearGradient>
<linearGradient id="paint33_linear_2143_812" x1="371.723" y1="556.581" x2="350.009" y2="734.017" gradientUnits="userSpaceOnUse">
<stop stop-color="#FB782D" stop-opacity="0"/>
<stop offset="1" stop-color="#FB782D"/>
</linearGradient>
<linearGradient id="paint34_linear_2143_812" x1="1414" y1="297.873" x2="1553.59" y2="614.279" gradientUnits="userSpaceOnUse">
<stop stop-color="#FB782D"/>
<stop offset="0.245" stop-color="#FB782D" stop-opacity="0.3"/>
<stop offset="0.661847" stop-color="#FB782D" stop-opacity="0"/>
</linearGradient>
<linearGradient id="paint35_linear_2143_812" x1="1410.9" y1="297.872" x2="1609.42" y2="744.563" gradientUnits="userSpaceOnUse">
<stop stop-color="#FB782D"/>
<stop offset="0.245" stop-color="#FB782D" stop-opacity="0.3"/>
<stop offset="0.661847" stop-color="#FB782D" stop-opacity="0"/>
</linearGradient>
<linearGradient id="paint36_linear_2143_812" x1="1408.41" y1="297.872" x2="1476.04" y2="421.953" gradientUnits="userSpaceOnUse">
<stop stop-color="#FB782D"/>
<stop offset="1" stop-color="#FB782D" stop-opacity="0"/>
</linearGradient>
<clipPath id="clip0_2143_812">
<rect width="1920" height="1080" fill="white"/>
</clipPath>
</defs>
</svg>
