<svg width="100" height="100" viewBox="0 0 100 100" fill="none" xmlns="http://www.w3.org/2000/svg">
<g clip-path="url(#clip0_2216_3714)">
<rect width="100" height="100" rx="24" fill="url(#paint0_linear_2216_3714)"/>
<g filter="url(#filter0_f_2216_3714)">
<path d="M72.5 50.9062H27.5C26.6301 50.9052 25.7961 50.5592 25.181 49.944C24.5658 49.3289 24.2198 48.4949 24.2188 47.625V40.125C24.2198 39.2551 24.5658 38.4211 25.181 37.806C25.7961 37.1908 26.6301 36.8448 27.5 36.8438H72.5C73.3699 36.8448 74.2039 37.1908 74.819 37.806C75.4342 38.4211 75.7802 39.2551 75.7812 40.125V47.625C75.7802 48.4949 75.4342 49.3289 74.819 49.944C74.2039 50.5592 73.3699 50.9052 72.5 50.9062ZM27.5 39.6562C27.3758 39.6565 27.2567 39.706 27.1688 39.7938C27.081 39.8817 27.0315 40.0008 27.0312 40.125V47.625C27.0315 47.7492 27.081 47.8683 27.1688 47.9562C27.2567 48.0441 27.3758 48.0935 27.5 48.0938H72.5C72.6242 48.0935 72.7433 48.0441 72.8312 47.9562C72.919 47.8683 72.9685 47.7492 72.9688 47.625V40.125C72.9685 40.0008 72.919 39.8817 72.8312 39.7938C72.7433 39.706 72.6242 39.6565 72.5 39.6562H27.5Z" fill="white"/>
<path d="M68.75 75.2812H31.25C30.3801 75.2802 29.5461 74.9342 28.931 74.319C28.3158 73.7039 27.9698 72.8699 27.9688 72V49.5C27.9688 49.1271 28.117 48.7694 28.3807 48.5057C28.6444 48.242 29.0021 48.0938 29.375 48.0938H70.625C70.9979 48.0938 71.3556 48.242 71.6193 48.5057C71.883 48.7694 72.0312 49.1271 72.0312 49.5V72C72.0302 72.8699 71.6842 73.7039 71.069 74.319C70.4539 74.9342 69.6199 75.2802 68.75 75.2812ZM30.7812 50.9062V72C30.7815 72.1242 30.831 72.2433 30.9188 72.3312C31.0067 72.419 31.1258 72.4685 31.25 72.4688H68.75C68.8742 72.4685 68.9933 72.419 69.0812 72.3312C69.169 72.2433 69.2185 72.1242 69.2188 72V50.9062H30.7812Z" fill="white"/>
<path d="M53.75 39.6562H46.25C45.8771 39.6562 45.5194 39.508 45.2557 39.2443C44.992 38.9806 44.8438 38.6229 44.8438 38.25V36.375C44.8438 35.0075 45.387 33.696 46.354 32.729C47.321 31.762 48.6325 31.2188 50 31.2188C51.3675 31.2188 52.679 31.762 53.646 32.729C54.613 33.696 55.1562 35.0075 55.1562 36.375V38.25C55.1562 38.6229 55.008 38.9806 54.7443 39.2443C54.4806 39.508 54.1229 39.6562 53.75 39.6562ZM47.6562 36.8438H52.3438V36.375C52.3438 35.7534 52.0968 35.1573 51.6573 34.7177C51.2177 34.2782 50.6216 34.0312 50 34.0312C49.3784 34.0312 48.7823 34.2782 48.3427 34.7177C47.9032 35.1573 47.6562 35.7534 47.6562 36.375V36.8438Z" fill="white"/>
<path d="M66.875 39.6563H51.875C51.502 39.6563 51.1444 39.5081 50.8806 39.2444C50.6169 38.9806 50.4688 38.623 50.4688 38.25C50.4688 37.877 50.6169 37.5194 50.8806 37.2556C51.1444 36.9919 51.502 36.8438 51.875 36.8438H66.875C66.9992 36.8435 67.1183 36.7941 67.2062 36.7062C67.294 36.6183 67.3435 36.4993 67.3438 36.375V28.4584C67.3436 28.0874 67.2554 27.7218 67.0863 27.3915C66.9173 27.0613 66.6723 26.7758 66.3714 26.5587C66.0706 26.3416 65.7225 26.1991 65.3558 26.1427C64.9891 26.0864 64.6142 26.1179 64.2621 26.2347L54.8871 29.3475C54.4208 29.5053 54.0154 29.8047 53.7275 30.2041C53.4396 30.6034 53.2836 31.0827 53.2812 31.575V33.1313C53.2812 33.5042 53.1331 33.8619 52.8694 34.1256C52.6056 34.3893 52.248 34.5375 51.875 34.5375C51.502 34.5375 51.1444 34.3893 50.8806 34.1256C50.6169 33.8619 50.4688 33.5042 50.4688 33.1313V31.5749C50.4717 30.4938 50.8128 29.4407 51.4442 28.5632C52.0756 27.6857 52.9658 27.0277 53.9899 26.6814L63.3759 23.565C64.1507 23.308 64.9755 23.2386 65.7824 23.3625C66.5894 23.4865 67.3553 23.8002 68.0173 24.278C68.6793 24.7557 69.2184 25.3838 69.5902 26.1106C69.9621 26.8374 70.1561 27.6421 70.1562 28.4584V36.375C70.1552 37.2449 69.8092 38.0789 69.194 38.694C68.5789 39.3092 67.7449 39.6552 66.875 39.6563Z" fill="white"/>
<path d="M48.125 39.6563H33.125C32.2551 39.6552 31.4211 39.3092 30.806 38.694C30.1908 38.0789 29.8448 37.2449 29.8438 36.375V28.4584C29.8439 27.6421 30.0379 26.8374 30.4098 26.1106C30.7816 25.3838 31.3207 24.7557 31.9827 24.278C32.6447 23.8002 33.4106 23.4865 34.2176 23.3625C35.0245 23.2386 35.8493 23.308 36.6241 23.565L45.9991 26.6778C47.0256 27.0229 47.9182 27.6808 48.5517 28.5591C49.1852 29.4374 49.5277 30.492 49.5312 31.5749V33.1313C49.5312 33.5042 49.3831 33.8619 49.1194 34.1256C48.8556 34.3893 48.498 34.5375 48.125 34.5375C47.752 34.5375 47.3944 34.3893 47.1306 34.1256C46.8669 33.8619 46.7188 33.5042 46.7188 33.1313V31.5749C46.7159 31.0808 46.5584 30.5999 46.2685 30.1998C45.9785 29.7997 45.5706 29.5003 45.1019 29.3438L35.7379 26.2346C35.3858 26.1179 35.0109 26.0863 34.6442 26.1427C34.2775 26.199 33.9294 26.3416 33.6286 26.5587C33.3277 26.7758 33.0827 27.0612 32.9137 27.3915C32.7446 27.7218 32.6564 28.0874 32.6562 28.4584V36.375C32.6565 36.4993 32.706 36.6183 32.7938 36.7062C32.8817 36.7941 33.0008 36.8435 33.125 36.8438H48.125C48.498 36.8438 48.8556 36.9919 49.1194 37.2556C49.3831 37.5194 49.5312 37.877 49.5312 38.25C49.5312 38.623 49.3831 38.9806 49.1194 39.2444C48.8556 39.5081 48.498 39.6563 48.125 39.6563Z" fill="white"/>
<path d="M50 75.2812C49.6271 75.2812 49.2694 75.133 49.0057 74.8693C48.742 74.6056 48.5938 74.2479 48.5938 73.875V49.5C48.5938 49.127 48.7419 48.7694 49.0056 48.5056C49.2694 48.2419 49.627 48.0938 50 48.0938C50.373 48.0938 50.7306 48.2419 50.9944 48.5056C51.2581 48.7694 51.4062 49.127 51.4062 49.5V73.875C51.4062 74.2479 51.258 74.6056 50.9943 74.8693C50.7306 75.133 50.3729 75.2812 50 75.2812Z" fill="white"/>
</g>
<path d="M72.5 50.9062H27.5C26.6301 50.9052 25.7961 50.5592 25.181 49.944C24.5658 49.3289 24.2198 48.4949 24.2188 47.625V40.125C24.2198 39.2551 24.5658 38.4211 25.181 37.806C25.7961 37.1908 26.6301 36.8448 27.5 36.8438H72.5C73.3699 36.8448 74.2039 37.1908 74.819 37.806C75.4342 38.4211 75.7802 39.2551 75.7812 40.125V47.625C75.7802 48.4949 75.4342 49.3289 74.819 49.944C74.2039 50.5592 73.3699 50.9052 72.5 50.9062ZM27.5 39.6562C27.3758 39.6565 27.2567 39.706 27.1688 39.7938C27.081 39.8817 27.0315 40.0008 27.0312 40.125V47.625C27.0315 47.7492 27.081 47.8683 27.1688 47.9562C27.2567 48.0441 27.3758 48.0935 27.5 48.0938H72.5C72.6242 48.0935 72.7433 48.0441 72.8312 47.9562C72.919 47.8683 72.9685 47.7492 72.9688 47.625V40.125C72.9685 40.0008 72.919 39.8817 72.8312 39.7938C72.7433 39.706 72.6242 39.6565 72.5 39.6562H27.5Z" fill="white"/>
<path d="M68.75 75.2812H31.25C30.3801 75.2802 29.5461 74.9342 28.931 74.319C28.3158 73.7039 27.9698 72.8699 27.9688 72V49.5C27.9688 49.1271 28.117 48.7694 28.3807 48.5057C28.6444 48.242 29.0021 48.0938 29.375 48.0938H70.625C70.9979 48.0938 71.3556 48.242 71.6193 48.5057C71.883 48.7694 72.0312 49.1271 72.0312 49.5V72C72.0302 72.8699 71.6842 73.7039 71.069 74.319C70.4539 74.9342 69.6199 75.2802 68.75 75.2812ZM30.7812 50.9062V72C30.7815 72.1242 30.831 72.2433 30.9188 72.3312C31.0067 72.419 31.1258 72.4685 31.25 72.4688H68.75C68.8742 72.4685 68.9933 72.419 69.0812 72.3312C69.169 72.2433 69.2185 72.1242 69.2188 72V50.9062H30.7812Z" fill="white"/>
<path d="M53.75 39.6562H46.25C45.8771 39.6562 45.5194 39.508 45.2557 39.2443C44.992 38.9806 44.8438 38.6229 44.8438 38.25V36.375C44.8438 35.0075 45.387 33.696 46.354 32.729C47.321 31.762 48.6325 31.2188 50 31.2188C51.3675 31.2188 52.679 31.762 53.646 32.729C54.613 33.696 55.1562 35.0075 55.1562 36.375V38.25C55.1562 38.6229 55.008 38.9806 54.7443 39.2443C54.4806 39.508 54.1229 39.6562 53.75 39.6562ZM47.6562 36.8438H52.3438V36.375C52.3438 35.7534 52.0968 35.1573 51.6573 34.7177C51.2177 34.2782 50.6216 34.0312 50 34.0312C49.3784 34.0312 48.7823 34.2782 48.3427 34.7177C47.9032 35.1573 47.6562 35.7534 47.6562 36.375V36.8438Z" fill="white"/>
<path d="M66.875 39.6563H51.875C51.502 39.6563 51.1444 39.5081 50.8806 39.2444C50.6169 38.9806 50.4688 38.623 50.4688 38.25C50.4688 37.877 50.6169 37.5194 50.8806 37.2556C51.1444 36.9919 51.502 36.8438 51.875 36.8438H66.875C66.9992 36.8435 67.1183 36.7941 67.2062 36.7062C67.294 36.6183 67.3435 36.4993 67.3438 36.375V28.4584C67.3436 28.0874 67.2554 27.7218 67.0863 27.3915C66.9173 27.0613 66.6723 26.7758 66.3714 26.5587C66.0706 26.3416 65.7225 26.1991 65.3558 26.1427C64.9891 26.0864 64.6142 26.1179 64.2621 26.2347L54.8871 29.3475C54.4208 29.5053 54.0154 29.8047 53.7275 30.2041C53.4396 30.6034 53.2836 31.0827 53.2812 31.575V33.1313C53.2812 33.5042 53.1331 33.8619 52.8694 34.1256C52.6056 34.3893 52.248 34.5375 51.875 34.5375C51.502 34.5375 51.1444 34.3893 50.8806 34.1256C50.6169 33.8619 50.4688 33.5042 50.4688 33.1313V31.5749C50.4717 30.4938 50.8128 29.4407 51.4442 28.5632C52.0756 27.6857 52.9658 27.0277 53.9899 26.6814L63.3759 23.565C64.1507 23.308 64.9755 23.2386 65.7824 23.3625C66.5894 23.4865 67.3553 23.8002 68.0173 24.278C68.6793 24.7557 69.2184 25.3838 69.5902 26.1106C69.9621 26.8374 70.1561 27.6421 70.1562 28.4584V36.375C70.1552 37.2449 69.8092 38.0789 69.194 38.694C68.5789 39.3092 67.7449 39.6552 66.875 39.6563Z" fill="white"/>
<path d="M48.125 39.6563H33.125C32.2551 39.6552 31.4211 39.3092 30.806 38.694C30.1908 38.0789 29.8448 37.2449 29.8438 36.375V28.4584C29.8439 27.6421 30.0379 26.8374 30.4098 26.1106C30.7816 25.3838 31.3207 24.7557 31.9827 24.278C32.6447 23.8002 33.4106 23.4865 34.2176 23.3625C35.0245 23.2386 35.8493 23.308 36.6241 23.565L45.9991 26.6778C47.0256 27.0229 47.9182 27.6808 48.5517 28.5591C49.1852 29.4374 49.5277 30.492 49.5312 31.5749V33.1313C49.5312 33.5042 49.3831 33.8619 49.1194 34.1256C48.8556 34.3893 48.498 34.5375 48.125 34.5375C47.752 34.5375 47.3944 34.3893 47.1306 34.1256C46.8669 33.8619 46.7188 33.5042 46.7188 33.1313V31.5749C46.7159 31.0808 46.5584 30.5999 46.2685 30.1998C45.9785 29.7997 45.5706 29.5003 45.1019 29.3438L35.7379 26.2346C35.3858 26.1179 35.0109 26.0863 34.6442 26.1427C34.2775 26.199 33.9294 26.3416 33.6286 26.5587C33.3277 26.7758 33.0827 27.0612 32.9137 27.3915C32.7446 27.7218 32.6564 28.0874 32.6562 28.4584V36.375C32.6565 36.4993 32.706 36.6183 32.7938 36.7062C32.8817 36.7941 33.0008 36.8435 33.125 36.8438H48.125C48.498 36.8438 48.8556 36.9919 49.1194 37.2556C49.3831 37.5194 49.5312 37.877 49.5312 38.25C49.5312 38.623 49.3831 38.9806 49.1194 39.2444C48.8556 39.5081 48.498 39.6563 48.125 39.6563Z" fill="white"/>
<path d="M50 75.2812C49.6271 75.2812 49.2694 75.133 49.0057 74.8693C48.742 74.6056 48.5938 74.2479 48.5938 73.875V49.5C48.5938 49.127 48.7419 48.7694 49.0056 48.5056C49.2694 48.2419 49.627 48.0938 50 48.0938C50.373 48.0938 50.7306 48.2419 50.9944 48.5056C51.2581 48.7694 51.4062 49.127 51.4062 49.5V73.875C51.4062 74.2479 51.258 74.6056 50.9943 74.8693C50.7306 75.133 50.3729 75.2812 50 75.2812Z" fill="white"/>
</g>
<rect x="0.5" y="0.5" width="99" height="99" rx="23.5" stroke="white" stroke-opacity="0.05"/>
<defs>
<filter id="filter0_f_2216_3714" x="-10" y="-10.5" width="120" height="120" filterUnits="userSpaceOnUse" color-interpolation-filters="sRGB">
<feFlood flood-opacity="0" result="BackgroundImageFix"/>
<feBlend mode="normal" in="SourceGraphic" in2="BackgroundImageFix" result="shape"/>
<feGaussianBlur stdDeviation="15" result="effect1_foregroundBlur_2216_3714"/>
</filter>
<linearGradient id="paint0_linear_2216_3714" x1="50" y1="0" x2="50" y2="100" gradientUnits="userSpaceOnUse">
<stop stop-color="#FB782D"/>
<stop offset="1" stop-color="#FB8D2D"/>
</linearGradient>
<clipPath id="clip0_2216_3714">
<rect width="100" height="100" rx="24" fill="white"/>
</clipPath>
</defs>
</svg>
