<svg width="100" height="100" viewBox="0 0 100 100" fill="none" xmlns="http://www.w3.org/2000/svg">
<g clip-path="url(#clip0_2216_3656)">
<rect width="100" height="100" rx="24" fill="url(#paint0_linear_2216_3656)"/>
<g clip-path="url(#clip1_2216_3656)" filter="url(#filter0_f_2216_3656)">
<path d="M44.2928 80.5C44.0568 80.5 43.8248 80.4625 43.5928 80.3838C42.7168 80.0763 42.1848 79.2438 42.3088 78.3814L45.7209 54.2519H32.0005C31.2445 54.2519 30.5525 53.8507 30.2125 53.217C29.8724 52.5833 29.9444 51.8221 30.4005 51.2521L54.4011 21.2543C54.9572 20.5569 55.9452 20.3094 56.7892 20.6544C57.6372 20.9956 58.1292 21.8318 57.9772 22.6867L54.3611 43.0027H68.0015C68.7375 43.0027 69.4136 43.3815 69.7616 43.9889C70.1096 44.5964 70.0736 45.3313 69.6736 45.9125L45.9649 79.6601C45.5849 80.1963 44.9489 80.5 44.2928 80.5ZM36.0006 50.5022H48.001C48.581 50.5022 49.125 50.7384 49.505 51.1434C49.885 51.5446 50.061 52.0883 49.985 52.6245L47.4209 70.7657L64.2894 46.7525H52.0011C51.4131 46.7525 50.857 46.5125 50.473 46.0888C50.093 45.6688 49.929 45.1101 50.029 44.5701L52.6811 29.6537L36.0006 50.5022Z" fill="white"/>
</g>
<g clip-path="url(#clip2_2216_3656)">
<path d="M44.2928 80.5C44.0568 80.5 43.8248 80.4625 43.5928 80.3838C42.7168 80.0763 42.1848 79.2438 42.3088 78.3814L45.7209 54.2519H32.0005C31.2445 54.2519 30.5525 53.8507 30.2125 53.217C29.8724 52.5833 29.9444 51.8221 30.4005 51.2521L54.4011 21.2543C54.9572 20.5569 55.9452 20.3094 56.7892 20.6544C57.6372 20.9956 58.1292 21.8318 57.9772 22.6867L54.3611 43.0027H68.0015C68.7375 43.0027 69.4136 43.3815 69.7616 43.9889C70.1096 44.5964 70.0736 45.3313 69.6736 45.9125L45.9649 79.6601C45.5849 80.1963 44.9489 80.5 44.2928 80.5ZM36.0006 50.5022H48.001C48.581 50.5022 49.125 50.7384 49.505 51.1434C49.885 51.5446 50.061 52.0883 49.985 52.6245L47.4209 70.7657L64.2894 46.7525H52.0011C51.4131 46.7525 50.857 46.5125 50.473 46.0888C50.093 45.6688 49.929 45.1101 50.029 44.5701L52.6811 29.6537L36.0006 50.5022Z" fill="white"/>
</g>
</g>
<rect x="0.5" y="0.5" width="99" height="99" rx="23.5" stroke="white" stroke-opacity="0.05"/>
<defs>
<filter id="filter0_f_2216_3656" x="-10" y="-9.5" width="120" height="120" filterUnits="userSpaceOnUse" color-interpolation-filters="sRGB">
<feFlood flood-opacity="0" result="BackgroundImageFix"/>
<feBlend mode="normal" in="SourceGraphic" in2="BackgroundImageFix" result="shape"/>
<feGaussianBlur stdDeviation="15" result="effect1_foregroundBlur_2216_3656"/>
</filter>
<linearGradient id="paint0_linear_2216_3656" x1="50" y1="0" x2="50" y2="100" gradientUnits="userSpaceOnUse">
<stop stop-color="#FB782D"/>
<stop offset="1" stop-color="#FB8D2D"/>
</linearGradient>
<clipPath id="clip0_2216_3656">
<rect width="100" height="100" rx="24" fill="white"/>
</clipPath>
<clipPath id="clip1_2216_3656">
<rect width="60" height="60" fill="white" transform="translate(20 20.5)"/>
</clipPath>
<clipPath id="clip2_2216_3656">
<rect width="60" height="60" fill="white" transform="translate(20 20.5)"/>
</clipPath>
</defs>
</svg>
