<svg width="100" height="100" viewBox="0 0 100 100" fill="none" xmlns="http://www.w3.org/2000/svg">
<g clip-path="url(#clip0_2216_3783)">
<rect width="100" height="100" rx="24" fill="url(#paint0_linear_2216_3783)"/>
<g filter="url(#filter0_f_2216_3783)">
<path d="M71.75 31.375H68.125V27.75C68.125 25.7508 66.4983 24.125 64.5 24.125H35.5C33.5017 24.125 31.875 25.7508 31.875 27.75V31.375H28.25C26.2517 31.375 24.625 33.0008 24.625 35V44.0625C24.625 49.0591 28.6909 53.125 33.6875 53.125H35.5344C38.5029 57.0631 43.0214 59.7678 48.1875 60.283V64H42.75C39.7517 64 37.3125 66.4392 37.3125 69.4375V73.0625C37.3125 74.0635 38.1231 74.875 39.125 74.875H60.875C61.8769 74.875 62.6875 74.0635 62.6875 73.0625V69.4375C62.6875 66.4392 60.2483 64 57.25 64H51.8125V60.283C56.9786 59.7678 61.4971 57.0631 64.4656 53.125H66.3125C71.3091 53.125 75.375 49.0591 75.375 44.0625V35C75.375 33.0008 73.7483 31.375 71.75 31.375ZM59.0625 69.4375V71.25H40.9375V69.4375C40.9375 68.4384 41.75 67.625 42.75 67.625H57.25C58.25 67.625 59.0625 68.4384 59.0625 69.4375ZM28.25 44.0625V35H31.875V42.25C31.875 44.816 32.4183 47.2552 33.3844 49.4692C30.5292 49.3083 28.25 46.9571 28.25 44.0625ZM50 56.75C42.0046 56.75 35.5 50.2454 35.5 42.25V27.75H64.5V42.25C64.5 50.2454 57.9954 56.75 50 56.75ZM71.75 44.0625C71.75 46.9571 69.4708 49.3083 66.6161 49.4692C67.5817 47.2552 68.125 44.816 68.125 42.25V35H71.75V44.0625Z" fill="white"/>
</g>
<path d="M71.75 31.375H68.125V27.75C68.125 25.7508 66.4983 24.125 64.5 24.125H35.5C33.5017 24.125 31.875 25.7508 31.875 27.75V31.375H28.25C26.2517 31.375 24.625 33.0008 24.625 35V44.0625C24.625 49.0591 28.6909 53.125 33.6875 53.125H35.5344C38.5029 57.0631 43.0214 59.7678 48.1875 60.283V64H42.75C39.7517 64 37.3125 66.4392 37.3125 69.4375V73.0625C37.3125 74.0635 38.1231 74.875 39.125 74.875H60.875C61.8769 74.875 62.6875 74.0635 62.6875 73.0625V69.4375C62.6875 66.4392 60.2483 64 57.25 64H51.8125V60.283C56.9786 59.7678 61.4971 57.0631 64.4656 53.125H66.3125C71.3091 53.125 75.375 49.0591 75.375 44.0625V35C75.375 33.0008 73.7483 31.375 71.75 31.375ZM59.0625 69.4375V71.25H40.9375V69.4375C40.9375 68.4384 41.75 67.625 42.75 67.625H57.25C58.25 67.625 59.0625 68.4384 59.0625 69.4375ZM28.25 44.0625V35H31.875V42.25C31.875 44.816 32.4183 47.2552 33.3844 49.4692C30.5292 49.3083 28.25 46.9571 28.25 44.0625ZM50 56.75C42.0046 56.75 35.5 50.2454 35.5 42.25V27.75H64.5V42.25C64.5 50.2454 57.9954 56.75 50 56.75ZM71.75 44.0625C71.75 46.9571 69.4708 49.3083 66.6161 49.4692C67.5817 47.2552 68.125 44.816 68.125 42.25V35H71.75V44.0625Z" fill="white"/>
</g>
<rect x="0.5" y="0.5" width="99" height="99" rx="23.5" stroke="white" stroke-opacity="0.05"/>
<defs>
<filter id="filter0_f_2216_3783" x="-9" y="-9.5" width="118" height="118" filterUnits="userSpaceOnUse" color-interpolation-filters="sRGB">
<feFlood flood-opacity="0" result="BackgroundImageFix"/>
<feBlend mode="normal" in="SourceGraphic" in2="BackgroundImageFix" result="shape"/>
<feGaussianBlur stdDeviation="15" result="effect1_foregroundBlur_2216_3783"/>
</filter>
<linearGradient id="paint0_linear_2216_3783" x1="50" y1="0" x2="50" y2="100" gradientUnits="userSpaceOnUse">
<stop stop-color="#FB782D"/>
<stop offset="1" stop-color="#FB8D2D"/>
</linearGradient>
<clipPath id="clip0_2216_3783">
<rect width="100" height="100" rx="24" fill="white"/>
</clipPath>
</defs>
</svg>
