<svg width="100" height="101" viewBox="0 0 100 101" fill="none" xmlns="http://www.w3.org/2000/svg">
<rect y="0.5" width="100" height="100" rx="24" fill="white" fill-opacity="0.08"/>
<g filter="url(#filter0_f_2143_1076)">
<path d="M50 68.1924C59.7712 68.1924 67.6924 60.2712 67.6924 50.5C67.6924 40.7289 59.7712 32.8077 50 32.8077C40.2289 32.8077 32.3077 40.7289 32.3077 50.5C32.3077 60.2712 40.2289 68.1924 50 68.1924Z" stroke="#FB782D" stroke-width="2" stroke-miterlimit="10" stroke-linecap="round" stroke-linejoin="round"/>
<path d="M50.0001 68.1924C55.0981 68.1924 59.2308 60.2712 59.2308 50.5C59.2308 40.7289 55.0981 32.8077 50.0001 32.8077C44.902 32.8077 40.7693 40.7289 40.7693 50.5C40.7693 60.2712 44.902 68.1924 50.0001 68.1924Z" stroke="#FB782D" stroke-width="2" stroke-miterlimit="10" stroke-linecap="round" stroke-linejoin="round"/>
<path d="M50 32.8077V68.1924" stroke="#FB782D" stroke-width="2" stroke-miterlimit="10" stroke-linecap="round" stroke-linejoin="round"/>
<path d="M65.0769 41.2693H34.9231" stroke="#FB782D" stroke-width="2" stroke-miterlimit="10" stroke-linecap="round" stroke-linejoin="round"/>
<path d="M67.6924 50.5H32.3077" stroke="#FB782D" stroke-width="2" stroke-miterlimit="10" stroke-linecap="round" stroke-linejoin="round"/>
<path d="M65.0769 59.7308H34.9231" stroke="#FB782D" stroke-width="2" stroke-miterlimit="10" stroke-linecap="round" stroke-linejoin="round"/>
</g>
<g clip-path="url(#clip0_2143_1076)">
<path d="M49.9769 31.0018C49.2599 31.0018 48.5434 31.0404 47.8305 31.1172C47.1771 31.184 46.5317 31.2934 45.8949 31.4262C45.7717 31.452 45.6484 31.4792 45.5252 31.5077C41.7736 32.3618 38.348 34.2799 35.6591 37.032C35.4091 37.2883 35.1643 37.5522 34.925 37.8236C27.6616 46.1622 28.5333 58.8101 36.8719 66.0735C44.8551 73.0272 56.8719 72.5645 64.2968 65.0176C64.5473 64.7613 64.792 64.4974 65.031 64.226C68.2364 60.5757 70.0029 55.8828 70 51.0248C70 39.9663 61.0354 31.0017 49.9769 31.0018ZM36.5488 38.0332C36.6543 37.9237 36.7637 37.8189 36.8712 37.7128C36.9953 37.5907 37.1188 37.4679 37.2456 37.3497C37.3571 37.2456 37.4719 37.1455 37.586 37.044C37.7148 36.9299 37.843 36.8158 37.9751 36.7057C38.0913 36.6075 38.2107 36.5134 38.3295 36.4187C38.463 36.3119 38.5965 36.2051 38.734 36.1023C38.8555 36.0109 38.979 35.9221 39.1031 35.8353C39.2413 35.7365 39.3801 35.6351 39.5209 35.543C39.6471 35.4575 39.7745 35.3748 39.9027 35.2927C40.0455 35.2013 40.189 35.1111 40.3339 35.0257C40.4643 34.9479 40.5955 34.8713 40.7276 34.7961C40.8754 34.712 41.0237 34.6299 41.1728 34.5498C41.3063 34.4787 41.4398 34.409 41.5733 34.3409C41.7255 34.2642 41.879 34.1901 42.0331 34.1173C42.1666 34.0539 42.3055 33.9905 42.4429 33.9305C42.5998 33.8637 42.7586 33.797 42.9175 33.7302C43.0557 33.6735 43.1931 33.6181 43.3326 33.5647C43.4942 33.5033 43.6577 33.4459 43.8212 33.3885C43.9607 33.3398 44.1002 33.2911 44.2417 33.245C44.4079 33.1916 44.5754 33.1422 44.7436 33.0935C44.8844 33.0528 45.0239 33.0107 45.1654 32.9727C45.2195 32.9587 45.2735 32.9473 45.3276 32.9333C43.352 34.8516 41.8859 37.2323 41.062 39.86C39.4779 39.4421 37.9443 38.852 36.4888 38.0999C36.5108 38.0766 36.5295 38.0532 36.5488 38.0332ZM35.5891 39.1078C37.1923 39.9764 38.8924 40.653 40.6542 41.1234C39.7906 44.1265 39.3372 47.2327 39.3067 50.3574H31.3041C31.4495 46.2369 32.9564 42.2808 35.5891 39.1078ZM35.5891 62.9419C32.9565 59.7687 31.4497 55.8127 31.3041 51.6923H39.3067C39.3372 54.8169 39.7905 57.9231 40.6542 60.9262C38.8925 61.3968 37.1924 62.0733 35.5891 62.9419ZM45.1614 69.0796C45.0266 69.0456 44.8871 69.0015 44.7483 68.9608C44.5794 68.9114 44.4099 68.862 44.243 68.808C44.1022 68.7626 43.9634 68.7139 43.8245 68.6651C43.6603 68.6084 43.4962 68.5503 43.334 68.4883C43.1951 68.4355 43.0583 68.3801 42.9208 68.3241C42.7613 68.2573 42.6018 68.1906 42.4436 68.1239C42.3075 68.0638 42.172 68.002 42.0371 67.9383C41.8816 67.8649 41.7268 67.7901 41.5699 67.7127C41.4365 67.646 41.303 67.5792 41.1695 67.5065C41.0186 67.4257 40.8691 67.3429 40.7196 67.2575C40.5861 67.1834 40.4593 67.1073 40.3305 67.0299C40.1837 66.9418 40.0395 66.8511 39.8953 66.7583C39.7685 66.6775 39.6417 66.5954 39.5169 66.5113C39.3747 66.4152 39.2339 66.3151 39.0944 66.215C38.9723 66.1275 38.8501 66.0401 38.73 65.948C38.5918 65.8439 38.4564 65.7364 38.3215 65.6283C38.2034 65.5342 38.0859 65.4408 37.9705 65.344C37.837 65.2332 37.7082 65.1177 37.5787 65.0029C37.4652 64.9021 37.3511 64.8027 37.2403 64.6999C37.1128 64.5811 36.9893 64.4576 36.8652 64.3355C36.7577 64.2294 36.6483 64.1246 36.5428 64.0158C36.5235 63.9951 36.5048 63.9737 36.4854 63.9537C37.9408 63.2013 39.4744 62.6109 41.0587 62.193C41.8827 64.8205 43.3487 67.2012 45.3243 69.1197C45.2702 69.1056 45.2155 69.0943 45.1614 69.0796ZM49.3095 69.6603C46.4536 69.2545 43.95 66.2737 42.3749 61.872C44.6522 61.3621 46.9761 61.0885 49.3095 61.0557V69.6603ZM49.3095 59.7208C46.8342 59.7534 44.3692 60.0474 41.9557 60.5978C41.1177 57.7023 40.6756 54.7065 40.6415 51.6923H49.3095V59.7208ZM49.3095 50.3574H40.6415C40.6755 47.3432 41.1176 44.3474 41.9557 41.4518C44.3692 42.0022 46.8343 42.2962 49.3095 42.3288V50.3574ZM49.3095 40.9939C46.976 40.9614 44.6522 40.6878 42.3749 40.1777C43.95 35.7759 46.4536 32.7951 49.3095 32.3893V40.9939ZM64.3649 39.1078C66.9974 42.2809 68.5042 46.237 68.6498 50.3574H60.6473C60.6167 47.2327 60.1634 44.1265 59.2997 41.1234C61.0614 40.6528 62.7615 39.9763 64.3649 39.1078ZM54.7872 32.9693C54.9273 33.0041 55.0668 33.0481 55.2057 33.0888C55.3745 33.1382 55.544 33.1876 55.7109 33.2417C55.8517 33.287 55.9906 33.3358 56.1294 33.3845C56.2936 33.4412 56.4578 33.4993 56.6199 33.5614C56.7588 33.6141 56.8956 33.6695 57.0331 33.7256C57.1926 33.7923 57.3521 33.859 57.5103 33.9258C57.6465 33.9859 57.782 34.0477 57.9168 34.1113C58.0723 34.1847 58.2271 34.2595 58.384 34.3369C58.5175 34.4037 58.651 34.4704 58.7844 34.5432C58.9353 34.6239 59.0848 34.7067 59.2343 34.7921C59.3678 34.8662 59.4946 34.9423 59.6234 35.0197C59.7702 35.1078 59.9144 35.1986 60.0586 35.2914C60.1854 35.3721 60.3122 35.4542 60.437 35.5383C60.5792 35.6344 60.7193 35.7339 60.8588 35.834C60.9816 35.9214 61.1038 36.0095 61.2246 36.101C61.3621 36.2044 61.4969 36.3119 61.6324 36.42C61.7499 36.5134 61.868 36.6069 61.9835 36.7043C62.1169 36.8151 62.2458 36.9306 62.3752 37.0454C62.4887 37.1462 62.6028 37.2456 62.7136 37.3484C62.8411 37.4672 62.9646 37.5907 63.0887 37.7128C63.1962 37.8189 63.3057 37.9237 63.4111 38.0325C63.4305 38.0532 63.4492 38.0746 63.4685 38.0946C62.0131 38.847 60.4795 39.4374 58.8952 39.8553C58.0696 37.2274 56.6017 34.8469 54.6243 32.9293C54.6784 32.9433 54.7331 32.9547 54.7872 32.9693ZM50.6444 32.3893C53.5004 32.7951 56.0039 35.7759 57.5791 40.1777C55.3018 40.6876 52.9778 40.9611 50.6444 40.9939V32.3893ZM50.6444 42.3288C53.1197 42.2963 55.5847 42.0023 57.9982 41.4518C58.8363 44.3474 59.2783 47.3432 59.3124 50.3574H50.6444V42.3288ZM50.6444 51.6923H59.3124C59.2784 54.7065 58.8363 57.7023 57.9982 60.5978C55.5847 60.0475 53.1197 59.7535 50.6444 59.7208V51.6923ZM50.6444 69.6603V61.0557C52.9779 61.0882 55.3018 61.3618 57.5791 61.872C56.0039 66.2737 53.5004 69.2545 50.6444 69.6603ZM63.4051 64.0165C63.2996 64.1252 63.1909 64.23 63.0834 64.3362C62.9593 64.4583 62.8351 64.5818 62.7076 64.7006C62.5968 64.804 62.4827 64.9008 62.3692 65.0043C62.2398 65.1191 62.1109 65.2339 61.9788 65.3447C61.862 65.4421 61.7432 65.5362 61.6244 65.631C61.4909 65.7378 61.3574 65.8446 61.2199 65.9473C61.0984 66.0388 60.975 66.1275 60.8508 66.2143C60.7127 66.3131 60.5738 66.4145 60.433 66.5067C60.3069 66.5921 60.1794 66.6748 60.0512 66.7563C59.9084 66.8484 59.7645 66.9374 59.6194 67.0233C59.4859 67.1013 59.3584 67.1774 59.227 67.2528C59.0792 67.3369 58.9306 67.419 58.7811 67.4991C58.6476 67.5703 58.5141 67.64 58.3806 67.708C58.2285 67.7848 58.075 67.8589 57.9208 67.9316C57.7873 67.995 57.6485 68.0584 57.511 68.1185C57.3541 68.1853 57.1953 68.252 57.0364 68.3187C56.8983 68.3748 56.7608 68.4309 56.622 68.4836C56.4591 68.5457 56.2956 68.6037 56.1314 68.6605C55.9926 68.7092 55.8537 68.7579 55.7129 68.8033C55.546 68.8574 55.3792 68.9068 55.209 68.9555C55.0695 68.9969 54.9293 69.0382 54.7885 69.0763C54.7344 69.0903 54.6804 69.1016 54.6263 69.1157C56.6019 67.1974 58.068 64.8166 58.8919 62.189C60.4761 62.6068 62.0097 63.197 63.4652 63.949C63.4431 63.9731 63.4245 63.9964 63.4051 64.0165ZM64.3649 62.9419C62.7616 62.0732 61.0615 61.3966 59.2997 60.9262C60.1634 57.9231 60.6167 54.8169 60.6473 51.6923H68.6498C68.5045 55.8127 66.9976 59.7688 64.3649 62.9419Z" fill="#FB782D"/>
</g>
<rect x="10.5" y="11.5" width="79" height="79" rx="15.5" fill="url(#paint0_linear_2143_1076)"/>
<rect x="10.5" y="11.5" width="79" height="79" rx="15.5" stroke="#FB782D"/>
<defs>
<filter id="filter0_f_2143_1076" x="6" y="6.5" width="88" height="88" filterUnits="userSpaceOnUse" color-interpolation-filters="sRGB">
<feFlood flood-opacity="0" result="BackgroundImageFix"/>
<feBlend mode="normal" in="SourceGraphic" in2="BackgroundImageFix" result="shape"/>
<feGaussianBlur stdDeviation="12" result="effect1_foregroundBlur_2143_1076"/>
</filter>
<linearGradient id="paint0_linear_2143_1076" x1="50" y1="41" x2="50" y2="91" gradientUnits="userSpaceOnUse">
<stop offset="0.295887" stop-color="#FB782D" stop-opacity="0"/>
<stop offset="1" stop-color="#FB782D" stop-opacity="0.4"/>
</linearGradient>
<clipPath id="clip0_2143_1076">
<rect width="40" height="40" fill="white" transform="translate(30 31)"/>
</clipPath>
</defs>
</svg>
