<svg width="100" height="101" viewBox="0 0 100 101" fill="none" xmlns="http://www.w3.org/2000/svg">
<rect y="0.5" width="100" height="100" rx="24" fill="white" fill-opacity="0.08"/>
<g clip-path="url(#clip0_2143_1019)">
<rect x="10" y="11" width="80" height="80" rx="16" fill="url(#paint0_linear_2143_1019)"/>
<g clip-path="url(#clip1_2143_1019)" filter="url(#filter0_f_2143_1019)">
<path d="M65.4365 42.3562C65.3891 40.6386 65.3482 39.1553 65.3482 38.2148C65.3482 37.9154 65.2351 37.6271 65.0316 37.4075C64.8281 37.188 64.5491 37.0534 64.2506 37.0307C59.3799 36.6758 54.6606 35.1816 50.4731 32.6687C50.2759 32.5506 50.0487 32.4923 49.819 32.5008C49.5894 32.5093 49.3671 32.5843 49.1792 32.7167C46.3269 34.7258 41.7765 36.1393 35.6539 36.9179C35.3679 36.9543 35.1049 37.0934 34.9139 37.3095C34.723 37.5255 34.6171 37.8036 34.6162 38.092C34.6131 39.0023 34.5808 40.4515 34.5433 42.1295C34.3858 49.1753 34.2949 55.1412 34.7808 56.7836C35.5837 59.4973 37.2501 62.0303 39.7336 64.3121C42.1498 66.5321 45.4135 68.5785 49.434 70.3946C49.5876 70.4639 49.7541 70.4998 49.9225 70.4998C50.0909 70.4998 50.2574 70.4639 50.411 70.3946C54.7145 68.4542 58.138 66.2856 60.5864 63.9491C63.1172 61.534 64.6896 58.8665 65.2598 56.0205C65.7463 53.5887 65.5745 47.3605 65.4365 42.3562ZM62.9309 55.5545C61.9876 60.2627 57.6122 64.4506 49.9234 68.0067C42.7353 64.6716 38.4076 60.6705 37.0583 56.1098C36.6381 54.6897 36.82 46.5536 36.9176 42.1825C36.9435 41.0278 36.9668 39.9805 36.9801 39.1355C42.5688 38.3376 46.9086 36.9781 49.9044 35.0866C53.9261 37.3808 58.3801 38.8154 62.9847 39.2997C63.0003 40.1702 63.0299 41.2411 63.0624 42.4217C63.1829 46.7878 63.3649 53.3859 62.9309 55.5545Z" fill="#FB782D"/>
</g>
<path d="M67.8739 40.4124C67.819 38.4237 67.7717 36.7061 67.7717 35.6171C67.7717 35.2705 67.6408 34.9366 67.4051 34.6824C67.1694 34.4282 66.8464 34.2723 66.5008 34.2461C60.861 33.8351 55.3965 32.105 50.5479 29.1953C50.3195 29.0586 50.0565 28.9911 49.7905 29.0009C49.5246 29.0108 49.2673 29.0976 49.0497 29.2509C45.747 31.5773 40.4781 33.214 33.3888 34.1155C33.0576 34.1576 32.7531 34.3187 32.532 34.5689C32.3109 34.819 32.1883 35.1411 32.1872 35.4749C32.1837 36.5289 32.1462 38.2069 32.1028 40.1499C31.9205 48.3083 31.8152 55.2161 32.3778 57.1178C33.3075 60.2601 35.2371 63.1929 38.1127 65.8351C40.9104 68.4056 44.6893 70.7751 49.3447 72.878C49.5225 72.9582 49.7153 72.9997 49.9103 72.9997C50.1054 72.9997 50.2982 72.9582 50.4759 72.878C55.4589 70.6312 59.423 68.1202 62.258 65.4148C65.1884 62.6183 67.0091 59.5296 67.6693 56.2342C68.2327 53.4185 68.0337 46.207 67.8739 40.4124ZM64.9726 55.6947C63.8804 61.1463 58.8142 65.9954 49.9113 70.113C41.5883 66.2514 36.5773 61.6185 35.0149 56.3377C34.5284 54.6933 34.739 45.2726 34.8521 40.2114C34.882 38.8743 34.909 37.6617 34.9244 36.6832C41.3955 35.7594 46.4205 34.1852 49.8894 31.995C54.546 34.6515 59.7033 36.3126 65.035 36.8733C65.0531 37.8812 65.0873 39.1213 65.125 40.4882C65.2645 45.5438 65.4752 53.1836 64.9726 55.6947Z" fill="#FB782D"/>
</g>
<rect x="10.5" y="11.5" width="79" height="79" rx="15.5" stroke="#FB782D"/>
<defs>
<filter id="filter0_f_2143_1019" x="-8.2" y="-6.7" width="116.4" height="116.4" filterUnits="userSpaceOnUse" color-interpolation-filters="sRGB">
<feFlood flood-opacity="0" result="BackgroundImageFix"/>
<feBlend mode="normal" in="SourceGraphic" in2="BackgroundImageFix" result="shape"/>
<feGaussianBlur stdDeviation="19.6" result="effect1_foregroundBlur_2143_1019"/>
</filter>
<linearGradient id="paint0_linear_2143_1019" x1="50" y1="41" x2="50" y2="91" gradientUnits="userSpaceOnUse">
<stop offset="0.295887" stop-color="#FB782D" stop-opacity="0"/>
<stop offset="1" stop-color="#FB782D" stop-opacity="0.4"/>
</linearGradient>
<clipPath id="clip0_2143_1019">
<rect x="10" y="11" width="80" height="80" rx="16" fill="white"/>
</clipPath>
<clipPath id="clip1_2143_1019">
<rect width="38" height="38" fill="white" transform="translate(31 32.5)"/>
</clipPath>
</defs>
</svg>
